<svg xmlns="http://www.w3.org/2000/svg" width="337" height="90" viewBox="0 0 89.16 23.81" version="1.1" id="svg8"><defs id="defs2"><clipPath id="clipPath839" clipPathUnits="userSpaceOnUse"><path id="path837" d="M116.25 17.71h88.64v19.83h-88.64z"/></clipPath><clipPath id="clipPath903" clipPathUnits="userSpaceOnUse"><path id="path901" d="M0 0h952.44v1388.98H0z"/></clipPath><clipPath id="clipPath1039" clipPathUnits="userSpaceOnUse"><path id="path1037" d="M0 0h952.44v1388.98H0z"/></clipPath><clipPath id="clipPath1227" clipPathUnits="userSpaceOnUse"><path id="path1225" d="M924.1 496.08h14.17v14.17H924.1z"/></clipPath><clipPath id="clipPath1247" clipPathUnits="userSpaceOnUse"><path id="path1245" d="M924.1 452.14h14.17v14.17H924.1z"/></clipPath><clipPath id="clipPath1267" clipPathUnits="userSpaceOnUse"><path id="path1265" d="M728.5 90.99h14.18v14.17H728.5z"/></clipPath><clipPath id="clipPath1283" clipPathUnits="userSpaceOnUse"><path id="path1281" d="M0 0h952.44v1388.98H0z"/></clipPath><clipPath id="clipPath1299" clipPathUnits="userSpaceOnUse"><path id="path1297" d="M0 0h952.44v1388.98H0z"/></clipPath><clipPath id="clipPath1315" clipPathUnits="userSpaceOnUse"><path id="path1313" d="M0 0h952.44v1388.98H0z"/></clipPath><clipPath id="clipPath1331" clipPathUnits="userSpaceOnUse"><path id="path1329" d="M0 0h952.44v1388.98H0z"/></clipPath><clipPath id="clipPath1347" clipPathUnits="userSpaceOnUse"><path id="path1345" d="M0 0h952.44v1388.98H0z"/></clipPath><clipPath id="clipPath1363" clipPathUnits="userSpaceOnUse"><path id="path1361" d="M0 0h952.44v1388.98H0z"/></clipPath><clipPath id="clipPath1379" clipPathUnits="userSpaceOnUse"><path id="path1377" d="M0 0h952.44v1388.98H0z"/></clipPath><clipPath id="clipPath1411" clipPathUnits="userSpaceOnUse"><path id="path1409" d="M781.73 28.35h101.36v22.67H781.73z"/></clipPath><clipPath id="clipPath1475" clipPathUnits="userSpaceOnUse"><path id="path1473" d="M714.33 552.76h76.78v113.3h-76.78z"/></clipPath><clipPath id="clipPath1499" clipPathUnits="userSpaceOnUse"><path id="path1497" d="M0 0h952.44v1388.98H0z"/></clipPath><clipPath id="clipPath1575" clipPathUnits="userSpaceOnUse"><path id="path1573" d="M0 0h952.44v1388.98H0z"/></clipPath><clipPath id="clipPath1595" clipPathUnits="userSpaceOnUse"><path id="path1593" d="M0 0h952.44v1388.98H0z"/></clipPath><clipPath id="clipPath1615" clipPathUnits="userSpaceOnUse"><path id="path1613" d="M0 0h952.44v1388.98H0z"/></clipPath><clipPath id="clipPath3439" clipPathUnits="userSpaceOnUse"><path id="path3437" d="M301.32 471.74h11.34v11.52h-11.34z"/></clipPath><clipPath id="clipPath3459" clipPathUnits="userSpaceOnUse"><path id="path3457" d="M337.04 471.83h11.34v11.34h-11.34z"/></clipPath><clipPath id="clipPath3491" clipPathUnits="userSpaceOnUse"><path id="path3489" d="M372.76 472.35h11.33v10.3h-11.33z"/></clipPath><clipPath id="clipPath3507" clipPathUnits="userSpaceOnUse"><path id="path3505" d="M408.47 472.35h11.34v10.3h-11.34z"/></clipPath><clipPath id="clipPath3523" clipPathUnits="userSpaceOnUse"><path id="path3521" d="M444.19 471.74h11.34v11.52h-11.34z"/></clipPath><clipPath id="clipPath3645" clipPathUnits="userSpaceOnUse"><path id="path3643" d="M543.9 471.83h11.34v11.34H543.9z"/></clipPath><clipPath id="clipPath3677" clipPathUnits="userSpaceOnUse"><path id="path3675" d="M588.54 472.35h11.34v10.3h-11.34z"/></clipPath><clipPath id="clipPath3693" clipPathUnits="userSpaceOnUse"><path id="path3691" d="M633.19 472.35h11.34v10.3h-11.34z"/></clipPath><clipPath id="clipPath3709" clipPathUnits="userSpaceOnUse"><path id="path3707" d="M677.84 471.74h11.33v11.52h-11.33z"/></clipPath><clipPath id="clipPath3911" clipPathUnits="userSpaceOnUse"><path id="path3909" d="M316.06 650.32h11.34v11.52h-11.34z"/></clipPath><clipPath id="clipPath3931" clipPathUnits="userSpaceOnUse"><path id="path3929" d="M377 650.4h11.35v11.35H377z"/></clipPath><clipPath id="clipPath3963" clipPathUnits="userSpaceOnUse"><path id="path3961" d="M439.37 650.93h11.34v10.3h-11.34z"/></clipPath><clipPath id="clipPath3979" clipPathUnits="userSpaceOnUse"><path id="path3977" d="M508.82 650.93h11.34v10.3h-11.34z"/></clipPath><clipPath id="clipPath3995" clipPathUnits="userSpaceOnUse"><path id="path3993" d="M585.36 650.93h11.33v10.3h-11.34z"/></clipPath><clipPath id="clipPath4011" clipPathUnits="userSpaceOnUse"><path id="path4009" d="M661.89 650.32h11.34v11.52h-11.34z"/></clipPath><clipPath id="clipPath7489" clipPathUnits="userSpaceOnUse"><path id="path7487" d="M77.95 1344.8H89.3v11.53H77.95z"/></clipPath><clipPath id="clipPath7509" clipPathUnits="userSpaceOnUse"><path id="path7507" d="M138.9 1344.9h11.34v11.34H138.9z"/></clipPath><clipPath id="clipPath7541" clipPathUnits="userSpaceOnUse"><path id="path7539" d="M201.26 1345.42h11.34v10.3h-11.34z"/></clipPath><clipPath id="clipPath7557" clipPathUnits="userSpaceOnUse"><path id="path7555" d="M270.7 1345.42h11.35v10.3H270.7z"/></clipPath><clipPath id="clipPath7573" clipPathUnits="userSpaceOnUse"><path id="path7571" d="M347.24 1345.42h11.34v10.3h-11.34z"/></clipPath><clipPath id="clipPath7589" clipPathUnits="userSpaceOnUse"><path id="path7587" d="M423.78 1344.8h11.34v11.53h-11.34z"/></clipPath><clipPath id="clipPath7743" clipPathUnits="userSpaceOnUse"><path id="path7741" d="M554.17 1344.8h11.34v11.53h-11.34z"/></clipPath><clipPath id="clipPath7763" clipPathUnits="userSpaceOnUse"><path id="path7761" d="M615.12 1344.9h11.34v11.34h-11.34z"/></clipPath><clipPath id="clipPath7795" clipPathUnits="userSpaceOnUse"><path id="path7793" d="M677.48 1345.42h11.34v10.3h-11.34z"/></clipPath><clipPath id="clipPath7811" clipPathUnits="userSpaceOnUse"><path id="path7809" d="M746.93 1345.42h11.34v10.3h-11.34z"/></clipPath><clipPath id="clipPath7827" clipPathUnits="userSpaceOnUse"><path id="path7825" d="M823.47 1345.42h11.33v10.3h-11.33z"/></clipPath><clipPath id="clipPath7843" clipPathUnits="userSpaceOnUse"><path id="path7841" d="M900 1344.8h11.34v11.53H900z"/></clipPath></defs><g id="layer1" transform="translate(0 -273.19)"><g id="g1405" transform="matrix(.8284 0 0 -.8284 -644.96 317.97)"><g id="g1407" clip-path="url(#clipPath1411)"><g id="g1413" transform="translate(788.9 41.61)"><path d="M0 0c.28 3.48 1.77 6.86 2.74 9.32A11.35 11.35 0 0 1-6.81.88C-6.05.62-3.53-.14 0 0" style="fill:#ffffff;fill-opacity:1;fill-rule:nonzero;stroke:none" id="path1415"/></g><g id="g1417" transform="translate(790.55 41.74)"><path d="M0 0c5.78.67 9.91 4.36 11.02 5.45a11.3 11.3 0 0 1-9.39 3.8c-.7-1.84-2-5.71-2-9.29L0 0" style="fill:#ffffff;fill-opacity:1;fill-rule:nonzero;stroke:none" id="path1419"/></g><g id="g1421" transform="translate(790.26 40.36)"><path d="M0 0c.2-1.83.82-3.5 2.15-4.65 3.21-2.77 7.6-3.01 9.64-2.95a11.26 11.26 0 0 1 1.5 11.23A29.87 29.87 0 0 0 0 0" style="fill:#ffffff;fill-opacity:1;fill-rule:nonzero;stroke:none" id="path1423"/></g><g id="g1425" transform="translate(790.82 34.26)"><path d="M0 0a10.24 10.24 0 0 0-1.97 6.1c-3.86.1-6.21 1.15-6.91 1.51A11.34 11.34 0 0 1 6.87-4.93C4.57-3.93 1.71-2.33 0 0" style="fill:#ffffff;fill-opacity:1;fill-rule:nonzero;stroke:none" id="path1427"/></g><g id="g1429" transform="translate(820.14 45.25)"><path d="M0 0h-3.79l-1.36-9.71h-2.47L-6.26 0h-3.68l.27 1.94H.27z" style="fill:#ffffff;fill-opacity:1;fill-rule:nonzero;stroke:none" id="path1431"/></g><g id="g1433" transform="translate(821.53 42.18)"><path d="M0 0l.02-.03C.75.86 1.34 1.25 1.9 1.25c.47 0 .85-.24 1.38-.85L2.22-1.74c-.4.57-.72.83-1.1.83-.55 0-1.14-.61-1.4-1.13l-.65-4.6h-2.3l1.1 7.74h2.3z" style="fill:#ffffff;fill-opacity:1;fill-rule:nonzero;stroke:none" id="path1435"/></g><g id="g1437" transform="translate(832.69 43.17)"><path d="M0 0c-.96.19-1.64.26-2.61.26-4.18 0-5.6-2.47-5.6-4.73 0-1.95 1.13-3.32 2.7-3.32.8 0 1.49.27 2.23.86l-.1-.7h2.3zm-3.05-5.4a2.66 2.66 0 0 0-1.66-.68c-.7 0-1.13.54-1.13 1.5 0 .95.43 3.2 3.3 2.9l-.51-3.71" style="fill:#ffffff;fill-opacity:1;fill-rule:nonzero;stroke:none" id="path1439"/></g><g id="g1441" transform="translate(836.99 42.41)"><path d="M0 0c.94.72 1.7 1 2.65 1C4.45 1 4.93-.5 4.7-2.07l-.67-4.8h-2.3l.65 4.63c.1.76-.07 1.56-.69 1.56-.52 0-1.15-.37-1.94-1.2l-.7-4.98h-2.3L-2.16.87h2.3z" style="fill:#ffffff;fill-opacity:1;fill-rule:nonzero;stroke:none" id="path1443"/></g><g id="g1445" transform="translate(848.56 40.9)"><path d="M0 0c-.84.43-1.85.65-2.23.65-.31 0-.53-.13-.53-.35 0-.85 2.58-1.5 2.58-3.37 0-1.42-1.19-2.42-2.89-2.42-.92 0-1.7.2-2.68.69l.33 1.73c.64-.24 1.37-.55 2.11-.55.46 0 .75.17.75.43 0 .84-2.6 1.67-2.58 3.21 0 1.48 1.19 2.5 2.89 2.5.82 0 1.55-.2 2.43-.7z" style="fill:#ffffff;fill-opacity:1;fill-rule:nonzero;stroke:none" id="path1447"/></g><g id="g1449" transform="translate(861.62 42.41)"><path d="M0 0c.47 0 .87-.15 1.16-.46.34-.35.52-.9.52-1.57h-3.85C-1.92-.9-.97 0 0 0m.02 1.03c-1.94 0-3.46-1.9-3.46-4.32 0-2.24 1.33-3.74 3.32-3.74.81 0 1.65.3 2.35.86l.06.05v1.25l-.3-.25A3.37 3.37 0 0 0-.1-6c-1.65 0-2.25 1.6-2.25 2.68l.03.3H2.7v.16c.03.17.04.34.04.58 0 2-1.07 3.31-2.71 3.31" style="fill:#ffffff;fill-opacity:1;fill-rule:nonzero;stroke:none" id="path1451"/></g><g id="g1453" transform="translate(870.2 43.26)"><path d="M0 0a1.7 1.7 0 0 1-.78.19c-.87 0-1.44-.57-2.26-1.75l.21 1.58h-1.06l-1.04-7.74h1.06l.61 4.49C-2.58-2.2-1.6-.85-.8-.85c.2 0 .51-.05.76-.17l.15.97z" style="fill:#ffffff;fill-opacity:1;fill-rule:nonzero;stroke:none" id="path1455"/></g><g id="g1457" transform="translate(873.8 43.28)"><path d="M0 0l.33 1.69H-.73L-1.06 0h-1.39l-.12-.9h1.38l-.64-3.24c-.08-.43-.2-1.24-.2-1.67 0-1.21.8-2.1 1.93-2.1.55 0 .96.15 1.57.54l.08.06v1.17l-.3-.26C.8-6.8.37-7 0-7c-.45 0-.95.3-.95 1.14 0 .34.12 1.1.17 1.43l.02.11.62 3.42h1.89l.12.9z" style="fill:#ffffff;fill-opacity:1;fill-rule:nonzero;stroke:none" id="path1459"/></g><g id="g1461" transform="translate(882.52 42.8)"><path d="M0 0a1.9 1.9 0 0 1-1.49.64c-1.06 0-1.89-.66-2.58-1.38l.67 5.03h-1.06L-6.02-7.27h1.06l.7 5.08C-3.02-.87-2.43-.4-1.6-.4c.17 0 .5-.05.75-.32.23-.26.3-.66.24-1.2l-.71-5.36h1.06l.73 5.4C.58-1.12.4-.47 0 0" style="fill:#ffffff;fill-opacity:1;fill-rule:nonzero;stroke:none" id="path1463"/></g><g id="g1465" transform="translate(853.24 36.54)"><path d="M0 0c-.65 0-.83-.04-1.55.17l.72 5.46H.21c1.79 0 2.83-.85 2.56-2.77C2.54 1.15 1.6 0 0 0m.55 6.75h-2.34l-1.58-11.5h1.13L-1.71-1c.73-.13 1.03-.12 1.7-.12 2.08 0 3.66 1.78 3.98 4.04.32 2.32-1.28 3.83-3.42 3.83" style="fill:#ffffff;fill-opacity:1;fill-rule:nonzero;stroke:none" id="path1467"/></g></g></g></g></svg>
